<svg xmlns="http://www.w3.org/2000/svg" fill="none" viewBox="0 0 154 30"><path fill="teal" d="M143.2 30c-1.5 0-3-.3-4.4-1-1.7-.8-2.9-2.4-3.3-4.1a6.2
            6.2 0 0 1-5-.8 6.2 6.2 0 0 1-6 .4
            6 6 0 0 1-6.1-.6h-.2l-.2.2c-1.4.6-2.8.9-4.1.9h-.5c-2.3 0-4.4-.8-6.2-2.3a9.5
            9.5 0 0 1-11.5 1.1 6.2 6.2 0 0 1-7.1.3 6.2 6.2 0 0 1-6.8 0 8.9 8.9 0 0
            1-4.4 1.1c-.9 0-3.2-.1-5.1-1.4a9.5 9.5 0 0
            1-11.4-1c-1.4 1.1-3 1.8-4.8 2a5.5 5.5 0 0 1-2 3.1c-.6.6-1.5 1-2.8
            1.3h-1.1a6 6 0 0 1-5.7-4.2c-1 0-2-.4-3-1a6.2
            6.2 0 0 1-6.6 0 6.2 6.2 0 0 1-6.2.4l-.5.2-.4.2-1.3.2H26c-.7 0-1.4-.2-2-.4a6 6 0 0 1-2
            .4h-.4c-2 0-3.7-.6-5.3-1.6A10.4 10.4 0 1 1 16 6.1l.8-.5.2-.2h.3c1.5-.8 3-1 4.5-1 2.1 0 4
            .5 5.7 1.6a6 6 0 0 1 5.2-1.3 9.6 9.6 0 0 1
            5.5.3A9.5 9.5 0 0 1 48 6.8a10 10 0 0 1 6.7-2.5c2 0 4 .5 5.5 1.5a6.2 6.2 0 0 1 7.2-.3 6.2
            6.2 0 0 1 6.6 0 8.8 8.8 0 0 1 5.5-1c1-2.3 3.2-3.9
            5.8-3.9 2.6 0 5 1.7 5.9 4.1.9.3 1.7.6 2.5 1.1a6.2 6.2 0 0 1
            7-.3c.9-.5 1.9-.8 2.9-1 .7-2.7 3-4.5 5.9-4.5a6
            6 0 0 1 5.8 4.4c2.5.4 4.7 1.6 6.4 3.6a6.1 6.1 0 0 1 6.8-3.3l2.1-.3c2.4 0 4.6.9
            6.2 2.3a10.3 10.3 0 0 1 9-2l1.8-.2c3.4 0 6.1 2.7 6.1
            6.1v9c0 5.8-4.6 10.4-10.4 10.4Z"></path><path fill="#fff" d="M10.4 21a6.1 6.1 0 0 1 0-12.2 6 6 0 0 1 3.7 1.2c.8.7 1 1.9.4
            2.7-.7.8-1.9 1-2.7.3-.4-.3-.9-.5-1.4-.5-1.3
            0-2.3 1-2.3 2.4 0 1.2 1 2.3 2.3 2.3.5 0 1-.2 1.4-.5.8-.7 2-.5 2.7.3.6.9.4 2-.4
            2.7a6 6 0 0 1-3.7 1.2ZM21.8 8.5c2.4 0 4.2 1.2 5.5 3.5.4.7.6
            1.5.6 2.4V19c0 .7-.4 1.1-1.3 1.5H26c-.9 0-1.4-.5-1.6-1.6v-4.3c0-1.3-.7-2.2-2-2.6h-.6c-1.2 0-2
            .6-2.5 2v.6c0 1.2.6 2 1.8 2.5 1.2 0
            1.9.3 2 .7.3.2.5.6.5 1v.2c-.3 1-.8 1.5-1.6 1.5h-.4c-2.2
            0-4-1.1-5.3-3.4-.4-.9-.6-1.7-.6-2.4v-.3c0-2.1 1.1-3.9 3.3-5.2 1-.5 2-.7
            2.8-.7Zm25 5.4v4.8a2 2 0
            0 1-1.9 2 2 2 0 0 1-1.9-2V14c0-.8-.6-1.5-1.4-1.5-.8 0-1.5.7-1.5 1.5v4.8a2 2 0 0
            1-1.9 2 2 2 0 0 1-1.9-2V14c0-.8-.6-1.5-1.4-1.5-.8
            0-1.5.7-1.5 1.5v4.8a1.9 1.9 0 1 1-3.8 0v-8.1c0-1 .9-1.8 1.8-1.8.5 0
            .9.1 1.2.4a5 5 0 0 1 2.3-.6c1.2 0 2.4.5 3.3 1.3 1-.8 2.1-1.3
            3.4-1.3 2.8 0 5.2 2.4 5.2 5.3Zm7.8-5.4c2.4 0 4.2 1.1 5.5 3.4.4.8.6 1.7.6
            2.6a6 6 0 0 1-6 6c-1.2-.2-1.8-.7-1.8-1.5v-.3c0-.9.6-1.4
            1.7-1.6 1.2 0
            2-.6 2.5-1.8l.1-.8c0-1.2-.6-2-2-2.6h-.6c-1.1 0-2 .6-2.4 1.8l-.1.6v8.3c0 1-.3 1.7-.7 1.9 0 0-.3.2-1
            .3h-.2c-.8 0-1.3-.4-1.6-1.3v-7.9c0-2.1.3-3.6 1-4.3a6 6 0 0 1 5-2.8Zm12.7
            12.3a5.3 5.3 0 0 1-5.2-5.2v-5c0-1 .8-1.8 1.9-1.8 1
            0 1.8.8 1.8 1.8v5c0 .8.7 1.5 1.5 1.5s1.5-.7 1.5-1.5v-5c0-1 .8-1.8 1.8-1.8s2
            .8 2 1.8v5c0 2.9-2.4 5.2-5.3 5.2ZM78.8 12c-.5-.1-1.1-.3-1.3.2 0
            .5.8.7 1.1.8.8.1 1.4.5 2 1 1 1.2 1.3 3 .7 4.5a4.2 4.2 0 0 1-3.7
            2.4c-1 0-2.7-.2-3.5-1.2-.9-1.2 0-3 1.5-2.9.6
            0 1.2.5 1.7.5.9.1 1-1 .3-1.1-1.5-.5-2.6-1-3.3-2.5-.5-1-.4-2.3.3-3.3 1.2-1.5
            3.3-2 5.1-1.3 1 .3 1.7 1.3 1.1 2.4-.4.7-1.1.8-2
            .5Zm15 2v4.8a2 2 0 0 1-1.9 2 2 2 0 0 1-1.9-2V14c0-.8-.6-1.5-1.4-1.5-.8 0-1.5.7-1.5 1.5v4.8a2
            2 0 0 1-1.9 2c-1 0-1.9-1-1.9-2v-12a2
            2 0 1 1 3.8 0V9l1.5-.2c2.9 0 5.2 2.4 5.2 5.3Zm6.9 7a5.3 5.3 0 0 1-5.3-5.3v-5c0-1
            .9-1.8 2-1.8 1 0 1.8.8 1.8 1.8v5c0 .8.7 1.5 1.5
            1.5s1.4-.7 1.4-1.5v-5c0-1 .9-1.8 2-1.8 1 0 1.8.8
            1.8 1.8v5c0 2.9-2.3 5.2-5.2 5.2Zm8.7-16.7c.8 0 1.4.5 1.7 1.5v8.8c0 1.3.7
            2.2 2 2.6h.7c1.1 0 2-.6 2.4-2v-.6c0-1.2-.6-2-2-2.5-1.3-.1-2-.4-2-.8-.2-.2-.3-.6-.3-1
            .2-1.1.8-1.7 1.8-1.7 2 0 3.5.9 4.9 2.5.7 1 1.1 2.2 1.1 3.3v.5c0
            2.1-1.1 3.9-3.4 5.2a6 6 0 0 1-2.4.5h-.5c-1.6 0-3-.6-4.2-1.9a6 6
            0 0 1-1.6-4.4V6.2c0-1.3.7-1.9 1.8-1.9ZM123.6 19a1.7 1.7 0 1 1-1.7-1.7c1 0 1.7.8
            1.7 1.7Zm12.2-5v4.9c0 1-.9 1.8-1.9 1.8-1 0-1.9-.8-1.9-1.8v-5c0-.7-.6-1.4-1.4-1.4-.9
            0-1.5.7-1.5 1.5v4.9a1.9 1.9 0 0 1-3.8
            0v-8.2a1.8 1.8 0 0 1 3-1.4c.6-.4 1.4-.6 2.3-.6
            2.9 0 5.2 2.4 5.2 5.3Zm13.5-3.4v9a6 6 0 0 1-8.6 5.5 1.8 1.8 0 1 1 1.5-3.3c1.2.6
            2.8.2 3.3-1.3-.7.3-1.5.4-2.3.4a6 6 0 0 1 0-12.1c1
            0 2 .2 2.8.7.4-.4.9-.7 1.5-.7 1 0 1.8.8 1.8 1.8Zm-3.8
            4.3a2.3 2.3 0 0 0-4.5 0c0 1.2 1 2.2 2.2 2.2 1.3 0 2.3-1 2.3-2.2Z"></path></svg>