<svg width="44" height="44" viewBox="0 0 44 44" fill="none" xmlns="http://www.w3.org/2000/svg">
<path d="M26.455 34.5033C26.1067 34.5033 25.7583 34.375 25.4833 34.1C24.9517 33.5683 24.9517 32.6883 25.4833 32.1566L35.64 22L25.4833 11.8433C24.9517 11.3116 24.9517 10.4316 25.4833 9.89997C26.015 9.3683 26.895 9.3683 27.4267 9.89997L38.555 21.0283C39.0867 21.56 39.0867 22.44 38.555 22.9716L27.4267 34.1C27.1517 34.375 26.8033 34.5033 26.455 34.5033Z" fill="#292D32"/>
<path d="M37.2716 23.375H6.41663C5.66496 23.375 5.04163 22.7517 5.04163 22C5.04163 21.2483 5.66496 20.625 6.41663 20.625H37.2716C38.0233 20.625 38.6466 21.2483 38.6466 22C38.6466 22.7517 38.0233 23.375 37.2716 23.375Z" fill="#292D32"/>
</svg>
