<svg width="40" height="40" viewBox="0 0 40 40" fill="none" xmlns="http://www.w3.org/2000/svg">
<g clip-path="url(#clip0_1_112)">
<path d="M35.2174 0.434753C36.3705 0.434753 37.4764 0.892826 38.2918 1.7082C39.1071 2.52358 39.5652 3.62946 39.5652 4.78258V35.2174C39.5652 36.3705 39.1071 37.4764 38.2918 38.2917C37.4764 39.1071 36.3705 39.5652 35.2174 39.5652H4.78261C3.62949 39.5652 2.52361 39.1071 1.70823 38.2917C0.892857 37.4764 0.434784 36.3705 0.434784 35.2174V4.78258C0.434784 3.62946 0.892857 2.52358 1.70823 1.7082C2.52361 0.892826 3.62949 0.434753 4.78261 0.434753H35.2174ZM34.1304 34.1304V22.6087C34.1304 20.7291 33.3838 18.9265 32.0547 17.5974C30.7257 16.2684 28.9231 15.5217 27.0435 15.5217C25.1957 15.5217 23.0435 16.6521 22 18.3478V15.9348H15.9348V34.1304H22V23.413C22 21.7391 23.3478 20.3695 25.0217 20.3695C25.8289 20.3695 26.603 20.6902 27.1738 21.261C27.7446 21.8317 28.0652 22.6058 28.0652 23.413V34.1304H34.1304ZM8.86957 12.5217C9.83818 12.5217 10.7671 12.1369 11.452 11.452C12.137 10.7671 12.5217 9.83815 12.5217 8.86954C12.5217 6.8478 10.8913 5.19562 8.86957 5.19562C7.89518 5.19562 6.96071 5.58269 6.27172 6.27169C5.58273 6.96068 5.19565 7.89515 5.19565 8.86954C5.19565 10.8913 6.84783 12.5217 8.86957 12.5217ZM11.8913 34.1304V15.9348H5.86957V34.1304H11.8913Z" fill="#101E38"/>
</g>
<defs>
<clipPath id="clip0_1_112">
<rect width="40" height="40" fill="white"/>
</clipPath>
</defs>
</svg>
